<svg width="97" height="93" xmlns="http://www.w3.org/2000/svg">

 <g>
  <title>background</title>
  <rect fill="none" id="canvas_background" height="95" width="99" y="-1" x="-1"/>
 </g>
 <g>
  <title>Layer 1</title>
  <g id="svg_1" fill-rule="evenodd" fill="none">
   <path id="svg_3" d="m3.000068,2.729997l91.26,0l0,87.55l-91.26,0l0,-87.55z" fill-rule="nonzero" fill="#FFF"/>
   <path id="svg_4" fill-rule="nonzero" fill="#DEE4F5" d="m94.750068,91.129997l-11.59,0c-1.92,0 -3.88,-0.06 -5.73,0c-0.94,0 -1.85,0.1 -2.81,0.1l-2.91,0c-2,-0.07 -3.95,-0.17 -5.86,-0.16l-5.68,0.15l-11.38,0.33c-1.91,0 -3.81,0.13 -5.75,0.1s-3.89,-0.13 -5.83,-0.17c-1.94,-0.04 -3.85,0 -5.75,0.06s-3.81,0.17 -5.73,0.19c-3.87,-0.07 -7.72,-0.14 -11.58,-0.26l-2.88,-0.08l-8.63,0a1,1 0 0 1 -1,-1c0,-3.65 -0.39,-7.29 -0.17,-10.94a45.5,45.5 0 0 0 0.23,-5.47c-0.06,-0.91 -0.17,-1.83 -0.18,-2.74c-0.01,-0.91 0,-1.82 0,-2.73c0,-7.3 0.21,-14.6 0.16,-21.89l0,-5.47c0,-1.82 0.17,-3.65 0.25,-5.48c0.08,-1.83 0.19,-3.64 0.13,-5.47c-0.06,-1.83 -0.24,-3.64 -0.23,-5.47c0,-3.65 0.3,-7.29 0.37,-10.94c0.07,-3.65 0,-7.3 -0.08,-10.95c0,-0.3 0.24,-0.545 0.54,-0.55c3.8,-0.09 7.61,0 11.41,0s7.6,0 11.41,0.11c1.9,0 3.8,0.05 5.7,0l5.7,-0.18c3.81,-0.16 7.61,-0.24 11.41,-0.33c3.8,-0.09 7.6,-0.12 11.41,-0.18c3.81,-0.06 7.6,0.21 11.4,0.26c3.8,0.05 7.61,-0.16 11.41,-0.24c3.8,-0.08 7.61,-0.33 11.41,-0.1l0.08,0a1.19,1.19 0 0 1 1.13,1.12c0,0.93 -0.06,1.85 -0.07,2.77l0.06,2.76l0.11,5.54c0,1.85 0,3.69 -0.12,5.52c-0.12,1.83 -0.26,3.64 -0.27,5.48c0,3.68 0.16,7.41 -0.09,11a45.21,45.21 0 0 0 0.11,5.56a53.72,53.72 0 0 1 0,5.53c-0.16,3.62 -0.25,7.25 -0.26,10.93c-0.01,3.68 0.17,7.47 0,11c-0.17,3.53 0,7.34 0.08,11.11c0.06,1.9 0,3.73 0.06,5.59c0.06,1.86 0.03,3.77 0.01,5.59zm-1.7,-1.7l0,-10.81c0.06,-3.55 0.18,-7.08 -0.06,-10.85c-0.1,-1.87 -0.19,-3.72 -0.17,-5.51l0.11,-5.34c0,-3.6 -0.18,-7.3 -0.37,-11a36.89,36.89 0 0 1 0,-5.37a30.52,30.52 0 0 0 0.18,-5.35a50,50 0 0 1 -0.16,-5.45c0,-1.78 0.23,-3.55 0.23,-5.36l0,-2.72l-0.16,-2.73c-0.12,-1.82 -0.12,-3.62 -0.09,-5.42l0.17,-5.4l0.08,-2.7l0,-2.72l1.14,1.15c-7.61,0.32 -15.21,-0.39 -22.82,-0.18c-1.9,0 -3.8,0.19 -5.7,0.29c-0.95,0.07 -1.9,0.1 -2.85,0.13c-0.95,0.03 -1.9,0.05 -2.85,0c-3.81,0 -7.61,0.05 -11.41,-0.07c-3.8,-0.12 -7.6,-0.09 -11.41,-0.33a94.3,94.3 0 0 0 -11.4,-0.2c-7.61,0.32 -15.21,0.48 -22.82,0.38l1.15,-1.12c-0.14,3.65 -0.41,7.3 -0.25,11c0.16,3.7 0.58,7.29 0.59,10.94c0,1.83 -0.34,3.65 -0.5,5.47a20.89,20.89 0 0 0 0,2.74c0,0.91 0.1,1.82 0.18,2.73a50.41,50.41 0 0 1 0.36,5.48c0.05,1.82 -0.05,3.64 -0.08,5.47l-0.14,5.4l0,5.47l-0.08,11l0,2.73c0,0.91 -0.16,1.83 -0.24,2.74a43.45,43.45 0 0 0 0.14,5.47c0.17,3.65 -0.24,7.29 -0.28,10.94l-0.84,-0.84c7.56,0.15 15.12,0.08 22.67,0.06l5.67,0.06c1.89,0 3.79,0 5.65,-0.07l5.59,-0.19l5.66,0l11.4,0.2l5.7,0.09c1.89,0 3.72,-0.1 5.55,-0.17c1.83,-0.07 3.73,0 5.67,0l5.66,0c3.63,-0.03 7.4,-0.02 11.13,-0.04z"/>
   <g id="svg_5" fill-rule="nonzero" fill="#DEE4F5" opacity="0.5">
    <path id="svg_6" d="m10.900068,10.649997l74.75,0l0,71.71l-74.75,0l0,-71.71z"/>
    <path id="svg_7" d="m86.210068,82.929997l-14.15,0c-1.52,0 -3.08,0.1 -4.69,0c-1.61,-0.1 -3.21,-0.09 -4.77,-0.08l-4.65,0.1l-9.34,0.22c-3.09,0.12 -6.29,0 -9.45,0c-1.58,-0.06 -3.14,0 -4.7,0l-4.7,0.11c-6.31,-0.07 -12.6,-0.29 -18.86,-0.25a0.7,0.7 0 0 1 -0.71,-0.69c0,-3 -0.24,-6 -0.11,-9a44.71,44.71 0 0 0 0.16,-4.48c0,-0.75 -0.12,-1.5 -0.12,-2.24l0,-2.18c0,-6 0.14,-12 0.11,-17.93c-0.03,-5.93 0.57,-11.95 0.1,-17.93l0.24,-9c0.06,-3 0,-6 -0.05,-9c0,-0.2 0.16,-0.365 0.36,-0.37c3.11,-0.06 6.22,0 9.34,0s6.23,0 9.34,0.07l4.67,0l4.68,-0.12c3.11,-0.1 6.23,-0.16 9.34,-0.22c3.11,-0.06 6.23,-0.07 9.34,-0.11c3.11,-0.04 6.23,0.11 9.35,0.15c3.12,0.04 6.23,-0.09 9.34,-0.14c3.11,-0.05 6.23,-0.19 9.34,-0.07l0.06,0a0.81,0.81 0 0 1 0.77,0.82l0,4.52l0.06,4.53c0,1.51 0,3 -0.08,4.51c-0.08,1.51 -0.14,3 -0.17,4.49c0,3 0.1,6 0,9c-0.07,1.48 0,3 0.06,4.53c0.06,1.53 0,3 0,4.53c-0.1,3 -0.16,5.94 -0.17,8.95c-0.01,3.01 0.11,6.09 0,9s0,6 0.05,9.08s0,6.17 0.01,9.2zm-1.13,-1.13l0,-8.88c0,-2.88 0.1,-5.85 0,-8.9c-0.1,-3.05 -0.09,-6 0,-8.9c0.09,-2.9 -0.11,-6 -0.24,-9a40.63,40.63 0 0 1 0,-4.42a32,32 0 0 0 0.12,-4.4c-0.25,-3 0,-5.91 0,-8.87c0,-2.96 -0.33,-6 -0.18,-8.91l0.1,-4.44l0,-4.45l0.77,0.77c-3.11,0.12 -6.22,0 -9.34,0s-6.23,-0.12 -9.34,-0.08c-3.11,0.04 -6.23,0.33 -9.35,0.3c-3.12,-0.03 -6.23,0 -9.34,0c-3.11,0 -6.23,-0.08 -9.34,-0.23l-4.68,-0.17c-1.55,-0.05 -3.11,0 -4.67,0c-6.23,0.22 -12.46,0.32 -18.68,0.25l0.8,-0.8c-0.1,3 -0.28,6 -0.17,9c0.11,3 0.39,6 0.39,9c0,1.5 -0.22,3 -0.32,4.48a31.89,31.89 0 0 0 0.1,4.48a70.69,70.69 0 0 1 0.18,9c-0.15,6 -0.07,11.95 -0.15,17.93l0,2.24c0,0.74 -0.11,1.49 -0.16,2.24a41.87,41.87 0 0 0 0.09,4.48c0.1,3 -0.15,6 -0.18,9l-0.56,-0.56c6.19,0.1 12.39,0 18.58,0c3.1,0 6.23,0.11 9.29,0c3.06,-0.11 6.12,-0.2 9.24,-0.11l9.34,0.14l4.67,0.06l4.57,-0.1c1.51,-0.06 3.07,0 4.65,0l4.64,0c3.01,-0.15 6.09,-0.14 9.17,-0.15z"/>
   </g>
   <rect id="svg_8" rx="11.02" height="24.52" width="22.15" y="23.859997" x="19.670068" fill-rule="nonzero" fill="#DEE4F5"/>
   <path id="svg_9" fill-rule="nonzero" fill="#DEE4F5" d="m30.790068,48.749997a12.07,12.07 0 0 1 -8.61,-3.7a11.11,11.11 0 0 1 -2.42,-4.16c-0.12,-0.39 -0.2,-0.79 -0.3,-1.18c-0.1,-0.39 -0.12,-0.79 -0.18,-1.19l-0.05,-1.21l0,-1.14c0,-0.77 0,-1.55 0.07,-2.36c0,-0.4 0.13,-0.8 0.19,-1.19l0.32,-1.16a11.06,11.06 0 0 1 2.43,-4.08a11.39,11.39 0 0 1 3.82,-2.78a12.27,12.27 0 0 1 4.62,-1a11.25,11.25 0 0 1 4.61,1a12,12 0 0 1 3.88,2.69a11.41,11.41 0 0 1 2.43,4.09c0.13,0.37 0.22,0.77 0.32,1.15c0.1,0.38 0.14,0.79 0.21,1.19l0.07,1.19l0,1.17c0,0.77 0,1.55 -0.09,2.35c-0.05,0.4 -0.13,0.8 -0.19,1.19l-0.28,1.13a10.87,10.87 0 0 1 -2.35,4.14a7.48,7.48 0 0 1 -0.86,0.83a8.26,8.26 0 0 1 -0.94,0.74a10.92,10.92 0 0 1 -2.05,1.29a11.62,11.62 0 0 1 -4.65,1zm0,-0.79a10.29,10.29 0 0 0 7.86,-3.64a11.23,11.23 0 0 0 2.22,-3.81a13,13 0 0 0 0.53,-4.46l0,-2.29c-0.06,-0.37 -0.09,-0.74 -0.16,-1.11c-0.07,-0.37 -0.19,-0.73 -0.31,-1.08a10.69,10.69 0 0 0 -2.3,-3.82a10.48,10.48 0 0 0 -3.57,-2.65a11.27,11.27 0 0 0 -4.37,-0.78l-1.11,0a10.6,10.6 0 0 0 -1.11,0.16a11,11 0 0 0 -2.1,0.71a10.28,10.28 0 0 0 -3.58,2.61a14.12,14.12 0 0 0 -2.23,3.83a10.22,10.22 0 0 0 -0.31,1.12c0,0.37 -0.12,0.74 -0.16,1.11c-0.08,0.74 -0.12,1.51 -0.14,2.29a10.57,10.57 0 0 0 2.84,8.34a10.23,10.23 0 0 0 8,3.49l0,-0.02z"/>
   <path id="svg_10" d="m30.740068,36.119997l28.93,0l0,32.02l-28.93,0l0,-32.02z" fill-rule="nonzero" fill="#FFF"/>
   <path id="svg_11" fill-rule="nonzero" fill="#FFF" d="m60.000068,68.419997c-2.43,0 -4.94,-0.06 -7.3,0c-2.51,-0.11 -4.87,0 -7.29,0.07c-1.21,0 -2.41,0.09 -3.65,0c-1.24,-0.09 -2.46,-0.07 -3.66,0c-2.43,0.12 -4.89,-0.07 -7.32,-0.07a0.36,0.36 0 0 1 -0.36,-0.36l0,-4c0,-1.33 0.12,-2.67 0,-4c-0.08,-2.66 0,-5.33 0,-8l0,-4l0.09,-2c0,-0.67 0,-1.34 -0.06,-2c0,-1.33 0.06,-2.66 0.09,-4c0.03,-1.34 0,-2.67 0,-4a0.2,0.2 0 0 1 0.19,-0.19l7.23,0c2.41,0.08 4.83,-0.1 7.24,-0.12l7.24,0c2.41,0.11 4.82,0 7.23,-0.08a0.42,0.42 0 0 1 0.43,0.4c0.07,1.35 -0.09,2.69 0,4s0.07,2.71 0,4s-0.07,2.67 0,4l-0.07,2l-0.03,2.2c0,1.34 -0.1,2.65 -0.11,4c-0.01,1.35 0.08,2.74 0,4l-0.05,2l0.05,2.06c0.11,1.42 0.11,2.73 0.11,4.09zm-0.57,-0.56l0,-6l-0.07,-2c-0.09,-1.37 0,-2.61 0,-4l-0.14,-4c0,-0.66 0.13,-1.27 0.12,-1.94c-0.01,-0.67 -0.06,-1.34 -0.08,-2a37.12,37.12 0 0 0 0,-4c-0.09,-1.34 0,-2.64 0,-4c0,-1.36 -0.07,-2.65 0,-4l0.4,0.4c-2.41,0 -4.82,-0.16 -7.23,0l-1.81,0.07l-5.42,0c-2.41,0 -4.83,-0.29 -7.24,-0.13c-2.41,0.16 -4.82,0.16 -7.23,0.1l0.39,-0.39c0,1.33 -0.14,2.67 -0.06,4c0.08,1.33 0.23,2.67 0.16,4a19.43,19.43 0 0 0 -0.16,2c0,0.66 0.09,1.33 0.14,2c0.12,1.33 0,2.66 0,4c-0.06,2.67 0,5.34 -0.12,8c-0.09,1.34 0.12,2.67 0,4s-0.07,2.67 -0.09,4l-0.26,-0.25l7.19,0c1.2,0 2.39,0 3.57,-0.07c1.18,-0.07 2.38,0 3.58,0c2.4,0 4.85,0.13 7.17,0c2.45,0.29 4.76,0.19 7.15,0.21l0.04,0z"/>
   <path id="svg_12" fill-rule="nonzero" fill="#DEE4F5" d="m65.000068,50.149997l-9.76,19l21.65,-0.7l-11.31,-18.33a0.33,0.33 0 0 0 -0.58,0.03z"/>
   <path id="svg_13" fill-rule="nonzero" fill="#DEE4F5" d="m65.330068,50.329997c-0.82,1.58 -1.62,3.17 -2.48,4.73l-1.12,2.43l-1.2,2.38c-1.68,3.15 -3.29,6.32 -5,9.45l-0.33,-0.52c1.8,0 3.61,0 5.42,-0.09s3.61,0 5.41,-0.13c1.8,-0.13 3.61,-0.09 5.41,-0.16c1.8,-0.07 3.61,-0.23 5.41,-0.3l-0.27,0.51l-3,-4.71c-1,-1.58 -1.87,-3.2 -2.88,-4.76c-0.49,-0.79 -1,-1.57 -1.47,-2.37s-0.91,-1.62 -1.42,-2.4l-1.48,-2.35l-0.75,-1.18l-0.35,-0.54l0.1,0.01zm-0.7,-0.36a0.74,0.74 0 0 1 0.57,-0.41a0.71,0.71 0 0 1 0.66,0.27c0.19,0.27 0.27,0.41 0.4,0.63l0.74,1.18l1.48,2.36c0.48,0.8 1,1.55 1.52,2.34c0.52,0.79 1,1.59 1.44,2.38l2.86,4.78a65.35,65.35 0 0 0 1.41,2.4l1.5,2.35a0.38,0.38 0 0 1 -0.12,0.54a0.33,0.33 0 0 1 -0.19,0.06l-2.71,0.13c-0.9,0.08 -1.81,0 -2.71,0c-1.8,0.09 -3.6,0.29 -5.41,0.31c-1.81,0.02 -3.61,0.13 -5.41,0.14c-1.8,0.01 -3.61,0.26 -5.42,0.17a0.43,0.43 0 0 1 -0.41,-0.45a0.46,0.46 0 0 1 0,-0.2c0.45,-0.77 0.9,-1.54 1.29,-2.34c0.39,-0.8 0.88,-1.55 1.3,-2.33c0.88,-1.53 1.58,-3.17 2.41,-4.77l1.17,-2.39l1.27,-2.37c0.73,-1.6 1.57,-3.19 2.36,-4.78z"/>
  </g>
 </g>
</svg>